Coordinates
version=1
nRows=32
nColumns=22
inDegrees=yes

Units are S.I. units (second, meters, Newtons, ...)
If the header above contains a line with 'inDegrees', this indicates whether rotational values are in degrees (yes) or radians (no).

endheader
time	pelvis_tilt	pelvis_list	pelvis_rotation	pelvis_tx	pelvis_ty	pelvis_tz	hip_flexion_r	hip_adduction_r	hip_rotation_r	knee_angle_r	ankle_angle_r	subtalar_angle_r	hip_flexion_l	hip_adduction_l	hip_rotation_l	knee_angle_l	ankle_angle_l	subtalar_angle_l	lumbar_extension	lumbar_bending	lumbar_rotation
      5.95000000	     -1.77543578	     -2.37422289	    290.75963859	     -0.94557899	      0.99695802	      0.55079561	     26.03922371	     -3.08666482	     -0.53449071	    -19.18692681	      4.21738662	     18.62306473	     -9.26801050	      6.92570673	      4.83201029	    -12.02203057	     14.24218634	    -14.56338154	     -6.77014316	     -3.65874877	     -7.68896639
      5.96000000	     -1.68168769	     -2.33801274	    291.45551304	     -0.94265718	      0.99578919	      0.55860819	     26.17984302	     -2.83041828	     -0.27722435	    -17.47592168	      3.95330972	     19.10388377	     -9.71065377	      6.87115186	      5.28407849	    -12.21538363	     14.42581658	    -14.42571062	     -6.73635570	     -3.69352168	     -7.64454089
      5.97000000	     -1.55398762	     -2.28023575	    292.13206429	     -0.93965581	      0.99458564	      0.56651621	     26.30312185	     -2.62077589	      0.00575895	    -15.80856208	      3.72824907	     19.38636687	    -10.14107807	      6.85823312	      5.71395539	    -12.43280056	     14.56842755	    -14.25184121	     -6.69054143	     -3.77033195	     -7.59996720
      5.98000000	     -1.41178647	     -2.20798603	    292.80613543	     -0.93653619	      0.99337329	      0.57453701	     26.39979814	     -2.44997145	      0.29830629	    -14.18843059	      3.53759910	     19.48792137	    -10.55805591	      6.86140222	      6.12048105	    -12.67982287	     14.65694632	    -14.05185036	     -6.63008192	     -3.86280564	     -7.57206165
      5.99000000	     -1.25477624	     -2.12658217	    293.47431208	     -0.93330986	      0.99217739	      0.58269492	     26.46799038	     -2.31804588	      0.62119308	    -12.63892194	      3.40062859	     19.49376601	    -10.97557817	      6.87630529	      6.50213031	    -12.94041852	     14.70184148	    -13.80871783	     -6.55625494	     -3.97357654	     -7.56062981
      6.00000000	     -1.09603051	     -2.03589241	    294.14259569	     -0.92996219	      0.99101154	      0.59095185	     26.51861942	     -2.22295720	      0.97613654	    -11.18363925	      3.31512660	     19.49058093	    -11.38714814	      6.89013706	      6.86613108	    -13.21272118	     14.70603862	    -13.52250778	     -6.47272400	     -4.08136504	     -7.57975217
      6.01000000	     -0.94865709	     -1.94288446	    294.81906387	     -0.92650173	      0.98990772	      0.59927997	     26.56324030	     -2.15896358	      1.33964478	     -9.86705562	      3.29844539	     19.56760413	    -11.78281008	      6.88418383	      7.21191404	    -13.51266627	     14.65916192	    -13.20501322	     -6.37895833	     -4.17620985	     -7.62125153
      6.02000000	     -0.82591060	     -1.85010687	    295.50482375	     -0.92293357	      0.98889354	      0.60761904	     26.61965559	     -2.11819510	      1.69941241	     -8.73034140	      3.34630516	     19.78408222	    -12.15548027	      6.84595578	      7.54681477	    -13.83725330	     14.56297168	    -12.86067799	     -6.28162063	     -4.23811899	     -7.69037773
      6.03000000	     -0.74236761	     -1.76588938	    296.19800699	     -0.91926684	      0.98800187	      0.61593449	     26.70197910	     -2.08509813	      2.03483769	     -7.81865064	      3.46474651	     20.15844186	    -12.49992183	      6.75868774	      7.86762261	    -14.19135675	     14.41857321	    -12.48488625	     -6.18568347	     -4.24816396	     -7.77920395
      6.04000000	     -0.70578029	     -1.69187650	    296.89611547	     -0.91549009	      0.98725457	      0.62421992	     26.81998361	     -2.05002567	      2.33229738	     -7.15891670	      3.64879937	     20.65305250	    -12.81770600	      6.61503346	      8.16815199	    -14.56168530	     14.22786781	    -12.08858654	     -6.08547237	     -4.19345673	     -7.88770821
      6.05000000	     -0.72470921	     -1.62956004	    297.58715767	     -0.91163525	      0.98665552	      0.63248926	     26.98431677	     -1.99260437	      2.60964785	     -6.76751572	      3.88498214	     21.21794460	    -13.10749588	      6.40750083	      8.44285208	    -14.93971288	     13.97597593	    -11.66684304	     -5.97702533	     -4.07084485	     -7.99774712
      6.06000000	     -0.78043334	     -1.58475989	    298.28992083	     -0.90765623	      0.98620111	      0.64075883	     27.17951674	     -1.92889143	      2.85018839	     -6.63996318	      4.19749349	     21.76752037	    -13.38585475	      6.14829237	      8.71106351	    -15.32428201	     13.66773400	    -11.22715655	     -5.87121241	     -3.89360583	     -8.12975204
      6.07000000	     -0.84964828	     -1.54601255	    299.01705488	     -0.90353403	      0.98584271	      0.64907163	     27.38812292	     -1.87783509	      3.09222943	     -6.72571668	      4.55802807	     22.18640678	    -13.65983618	      5.86157309	      9.00551241	    -15.70911736	     13.29995626	    -10.80406739	     -5.76462810	     -3.69657478	     -8.29198633
      6.08000000	     -0.90004962	     -1.50310944	    299.75717313	     -0.89926400	      0.98552005	      0.65752674	     27.59119588	     -1.85367547	      3.39149378	     -6.96928784	      4.94095431	     22.45596852	    -13.95976201	      5.57931800	      9.30784059	    -16.05666871	     12.83685784	    -10.37617700	     -5.65135586	     -3.52127071	     -8.47582475
      6.09000000	     -0.90085622	     -1.44615276	    300.52701112	     -0.89480603	      0.98517776	      0.66619906	     27.73458236	     -1.88370658	      3.80057310	     -7.25265216	      5.30355939	     22.53735309	    -14.30164332	      5.32832303	      9.63911045	    -16.36438881	     12.29215069	     -9.96104045	     -5.53149043	     -3.40942898	     -8.69401675
      6.10000000	     -0.83380481	     -1.36686136	    301.34099673	     -0.89011273	      0.98478291	      0.67512348	     27.78094505	     -1.98862281	      4.33363771	     -7.48999132	      5.61455316	     22.44708809	    -14.69588220	      5.12378032	     10.02237050	    -16.62814322	     11.66825660	     -9.50973637	     -5.40386112	     -3.38272920	     -8.95538937
      6.11000000	     -0.70232172	     -1.25333189	    302.19670328	     -0.88520037	      0.98433087	      0.68433304	     27.72341284	     -2.16798582	      5.00411554	     -7.64096689	      5.84882317	     22.23044865	    -15.14224513	      4.96225544	     10.44825774	    -16.82593555	     10.94349165	     -9.09616190	     -5.25539183	     -3.45058349	     -9.27743361
      6.12000000	     -0.54399166	     -1.12387553	    303.08320522	     -0.88009364	      0.98385692	      0.69382154	     27.55289624	     -2.37932112	      5.78285615	     -7.69142612	      5.98848173	     21.88494446	    -15.61894729	      4.80036579	     10.88959817	    -16.99179151	     10.15461718	     -8.53408651	     -5.08641935	     -3.56470749	     -9.61537114
      6.13000000	     -0.36409672	     -0.94959528	    303.98999209	     -0.87482173	      0.98334480	      0.70353840	     27.32505442	     -2.63619208	      6.65562968	     -7.70176992	      6.09174865	     21.62217981	    -16.09568580	      4.65335622	     11.35088043	    -17.11985400	      9.30123981	     -8.03089218	     -4.87459794	     -3.73556814	     -9.97699000
      6.14000000	     -0.20846192	     -0.74912451	    304.89855972	     -0.86946827	      0.98282859	      0.71352661	     27.05884758	     -2.87962841	      7.57163110	     -7.69929506	      6.09801335	     21.39480344	    -16.55192265	      4.46826722	     11.78170304	    -17.22148353	      8.41374561	     -7.40049980	     -4.61024236	     -3.92186870	    -10.34469777
      6.15000000	     -0.08147345	     -0.52018396	    305.79844462	     -0.86403630	      0.98229705	      0.72374125	     26.78432936	     -3.10782160	      8.50180845	     -7.72978544	      6.03438278	     21.25813420	    -16.96952636	      4.25388245	     12.19098195	    -17.31768703	      7.48662580	     -6.74037460	     -4.29387233	     -4.11422475	    -10.68776636
      6.16000000	      0.00690234	     -0.27364401	    306.67598199	     -0.85856029	      0.98175978	      0.73417243	     26.51657385	     -3.30035980	      9.42242633	     -7.81834889	      5.85250769	     21.18272281	    -17.34158648	      4.00303175	     12.57324855	    -17.42062135	      6.52865069	     -6.05254505	     -3.93184272	     -4.29799321	    -10.98514529
      6.17000000	      0.04331699	     -0.03065611	    307.51157287	     -0.85309818	      0.98124104	      0.74484812	     26.28052282	     -3.41977973	     10.28298794	     -8.01644781	      5.47868331	     21.14050084	    -17.67546129	      3.69614485	     12.90330567	    -17.52606752	      5.53509820	     -5.26578080	     -3.53378579	     -4.45379020	    -11.23282610
      6.18000000	      0.04080021	      0.20166021	    308.29040040	     -0.84766288	      0.98075889	      0.75570055	     26.08635227	     -3.46847015	     11.09035224	     -8.34597058	      4.90806363	     21.12122183	    -17.96780064	      3.35810806	     13.21138736	    -17.66066432	      4.48332386	     -4.53673294	     -3.12316065	     -4.58017327	    -11.39057656
      6.19000000	     -0.02496854	      0.39815161	    308.99182574	     -0.84230654	      0.98034277	      0.76673933	     25.97228296	     -3.39625261	     11.77392150	     -8.86622878	      4.09985768	     21.08266750	    -18.21246709	      2.96132033	     13.45133225	    -17.83450760	      3.37199117	     -3.77521569	     -2.70395959	     -4.63677995	    -11.46094290
      6.20000000	     -0.13937877	      0.55828770	    309.60026908	     -0.83706114	      0.98002337	      0.77788739	     25.95832099	     -3.21023223	     12.33422615	     -9.59994158	      3.06443821	     21.02142594	    -18.40067043	      2.53662486	     13.63912355	    -18.07299078	      2.18235641	     -3.10444615	     -2.29590301	     -4.62878803	    -11.42804207
      6.21000000	     -0.32151585	      0.66519196	    310.10935271	     -0.83194025	      0.97981410	      0.78912067	     26.07389832	     -2.88116731	     12.67774178	    -10.59406040	      1.97654376	     20.80587466	    -18.49904812	      2.07020419	     13.73759129	    -18.43510416	      0.90824062	     -2.34366902	     -1.90082291	     -4.52682862	    -11.26861184
      6.22000000	     -0.53948248	      0.73497436	    310.50496833	     -0.82697053	      0.97974901	      0.80032787	     26.30825360	     -2.45130619	     12.89043099	    -11.81707323	      0.86934819	     20.55724489	    -18.50119496	      1.61687645	     13.75169087	    -18.93886971	     -0.45270048	     -1.72432982	     -1.53957472	     -4.35877554	    -11.01197927
      6.23000000	     -0.78531586	      0.76009813	    310.81749946	     -0.82209425	      0.97985072	      0.81141839	     26.63987954	     -1.94554618	     12.90107177	    -13.25895317	     -0.06834782	     20.12819476	    -18.38757793	      1.17679672	     13.66382407	    -19.63542079	     -1.90108011	     -1.05425210	     -1.22809428	     -4.11773923	    -10.69955986
      6.24000000	     -1.04389836	      0.75303440	    311.03570682	     -0.81735607	      0.98012189	      0.82231281	     27.03652903	     -1.39105330	     12.79409373	    -14.84140949	     -0.82964056	     19.64495201	    -18.13610790	      0.77758848	     13.42909399	    -20.56278515	     -3.38862087	     -0.40560335	     -0.97489273	     -3.82629671	    -10.31326330
      6.25000000	     -1.30252144	      0.70667912	    311.20037910	     -0.81273126	      0.98059504	      0.83292956	     27.42821610	     -0.81835174	     12.59046016	    -16.46560637	     -1.36456285	     19.05451365	    -17.74396289	      0.40770041	     13.04824155	    -21.74585065	     -4.89191071	      0.27998332	     -0.79860257	     -3.49153197	     -9.90969613
      6.26000000	     -1.56818894	      0.61943237	    311.32490278	     -0.80826002	      0.98125346	      0.84323526	     27.77262652	     -0.22682201	     12.35212416	    -18.04215230	     -1.67534067	     18.49431601	    -17.18163706	      0.04149835	     12.44591936	    -23.22703079	     -6.34674951	      0.89779195	     -0.69506614	     -3.11205796	     -9.49643120
